<svg id="favicon" xmlns="http://www.w3.org/2000/svg" width="48" height="44" viewBox="0 0 48 44">
  <defs>
    <style>
      .cls-1 {
        fill: #29a361;
      }

      .cls-2 {
        fill: #248f55;
      }

      .cls-3 {
        fill: #34cb79;
      }

      .cls-4 {
        fill: #2fb86e;
      }
    </style>
  </defs>
  <path id="Caminho_8" data-name="Caminho 8" class="cls-1" d="M14.642,1.85l-4.575,8.736a1.2,1.2,0,0,0,.438,1.586l7.164,4.22a1.116,1.116,0,0,0,1.55-.442L27.975,0H17.64A3.4,3.4,0,0,0,14.642,1.85Z"/>
  <path id="Caminho_9" data-name="Caminho 9" class="cls-2" d="M27.974,0,19.218,15.95a1.116,1.116,0,0,1-1.55.442l-1.87-1.1a1.126,1.126,0,0,0,1.172-.581L25.047,0Z"/>
  <path id="Caminho_10" data-name="Caminho 10" class="cls-3" d="M37.555,8.459,34.4,1.949A3.4,3.4,0,0,0,31.351,0H22.228l7,12.316-.069.032a.572.572,0,0,0,.029,1.04L35.241,15.8a.538.538,0,0,0,.7-.324L38.275,9.18A.553.553,0,0,0,37.555,8.459Z"/>
  <path id="Caminho_11" data-name="Caminho 11" class="cls-4" d="M38.275,9.179l-2.332,6.293a.537.537,0,0,1-.7.324l-1.83-.729,2.182-5.888a.567.567,0,0,0-.358-.744,1.015,1.015,0,0,1-.628-.526l-2.889-5.96A3.4,3.4,0,0,0,28.669,0h2.683A3.4,3.4,0,0,1,34.4,1.949l3.155,6.511A.553.553,0,0,1,38.275,9.179Z"/>
  <path id="Caminho_12" data-name="Caminho 12" class="cls-1" d="M31.459,33.559a.477.477,0,0,0-.81-.232l-4.728,4.9a.513.513,0,0,0,0,.708l4.746,4.918a.477.477,0,0,0,.808-.223h6.979A3.4,3.4,0,0,0,41.5,41.693l3.982-8.134H31.459Z"/>
  <path id="Caminho_13" data-name="Caminho 13" class="cls-2" d="M37.351,33.559l2.263,3.549a2.758,2.758,0,0,1,.148,2.685l-.931,1.9a3.4,3.4,0,0,1-3.041,1.936h2.665A3.4,3.4,0,0,0,41.5,41.694l3.982-8.134H37.351Z"/>
  <path id="Caminho_14" data-name="Caminho 14" class="cls-1" d="M21.935,42.694V34.036A1.158,1.158,0,0,0,20.8,32.857H2.068l4.82,9.171a3.4,3.4,0,0,0,3,1.844H20.8A1.158,1.158,0,0,0,21.935,42.694Z"/>
  <path id="Caminho_15" data-name="Caminho 15" class="cls-2" d="M10.012,32.858l-4.16,7.2-3.784-7.2Z"/>
  <path id="Caminho_16" data-name="Caminho 16" class="cls-2" d="M21.935,34.036v8.659A1.158,1.158,0,0,1,20.8,43.872H17.815a1.158,1.158,0,0,0,1.137-1.178V34.036a1.158,1.158,0,0,0-1.137-1.178H20.8A1.158,1.158,0,0,1,21.935,34.036Z"/>
  <path id="Caminho_17" data-name="Caminho 17" class="cls-3" d="M12.785,25.207l-.841-6.56a.575.575,0,0,0-.641-.509l-6.354.875a.6.6,0,0,0-.329,1l-4.01,5.99a3.644,3.644,0,0,0-.193,3.706l4.364,8.3,7.086-12.266.007.006A.573.573,0,0,0,12.785,25.207Z"/>
  <path id="Caminho_18" data-name="Caminho 18" class="cls-4" d="M11.873,25.757l-.007-.006L4.78,38.016,3.322,35.244,9.09,25.259l.16-.277a.393.393,0,0,1,.426-.183h0a.582.582,0,0,0,.666-.663L9.6,18.371l1.7-.233a.576.576,0,0,1,.642.508l.841,6.561A.573.573,0,0,1,11.873,25.757Z"/>
  <path id="Caminho_19" data-name="Caminho 19" class="cls-3" d="M47.4,25.557,41.91,17.32a1.113,1.113,0,0,0-1.5-.351l-7.149,4.275a1.2,1.2,0,0,0-.38,1.67l10.078,15.8,4.676-9.551A3.644,3.644,0,0,0,47.4,25.557Z"/>
  <path id="Caminho_20" data-name="Caminho 20" class="cls-4" d="M47.631,29.164l-4.676,9.55-1.568-2.46,3.471-7.09a3.643,3.643,0,0,0-.235-3.607l-5.292-7.945,1.076-.644a1.112,1.112,0,0,1,1.5.351L47.4,25.557A3.644,3.644,0,0,1,47.631,29.164Z"/>
</svg>
